PathFileType	4	(X/Y/Z)	C:/Users/opensim2020/Desktop/walking_exp_matlab/subject06_walking23_straight_03.trc																																																																																																																																					
DataRate	CameraRate	NumFrames	NumMarkers	Units	OrigDataRate	OrigDataStartFrame	OrigNumFrames																																																																																																																																	
100	100	5	45	mm	100	1751	94																																																																																																																																	
Frame#	Time	LFHD			RFHD			LBHD			RBHD			C7			T10			CLAV			STRN			RBAK			LSHO			LUPA			LELB			LFRM			LWRA			LWRB			LFIN			RSHO			RUPA			RELB			RFRM			RWRA			RWRB			RFIN			LASI			RASI			LPSI			RPSI			LTHI			LKNE			LTIB			LANK			LHEE			LTOE			RTHI			RKNE			RTIB			RANK			RHEE			RTOE			*39			*40			*41			*42			*43			*44		
		X1	Y1	Z1	X2	Y2	Z2	X3	Y3	Z3	X4	Y4	Z4	X5	Y5	Z5	X6	Y6	Z6	X7	Y7	Z7	X8	Y8	Z8	X9	Y9	Z9	X10	Y10	Z10	X11	Y11	Z11	X12	Y12	Z12	X13	Y13	Z13	X14	Y14	Z14	X15	Y15	Z15	X16	Y16	Z16	X17	Y17	Z17	X18	Y18	Z18	X19	Y19	Z19	X20	Y20	Z20	X21	Y21	Z21	X22	Y22	Z22	X23	Y23	Z23	X24	Y24	Z24	X25	Y25	Z25	X26	Y26	Z26	X27	Y27	Z27	X28	Y28	Z28	X29	Y29	Z29	X30	Y30	Z30	X31	Y31	Z31	X32	Y32	Z32	X33	Y33	Z33	X34	Y34	Z34	X35	Y35	Z35	X36	Y36	Z36	X37	Y37	Z37	X38	Y38	Z38	X39	Y39	Z39	X40	Y40	Z40	X41	Y41	Z41	X42	Y42	Z42	X43	Y43	Z43	X44	Y44	Z44	X45	Y45	Z45
																																																																																																																																								
12	0.11	-495.67389	1622.54846	1337.7334	-498.07092	1615.30237	1469.5658	-629.20831	1568.94128	1336.69678	-630.17609	1566.69006	1466.271	-633.93335	1418.97668	1390.55713	-706.70056	1098.06555	1411.48474	-531.46497	1331.67371	1402.59399	-511.71924	1153.25208	1396.70203	-729.58014	1259.80505	1462.35205	-568.02576	1367.89392	1236.70605	-538.21881	1171.55652	1159.85535	-512.41937	1062.74573	1142.97437	-402.90958	960.99713	1143.59302	-295.16617	921.41943	1213.22083	-325.07251	874.70496	1169.54468	-240.09508	850.47894	1185.44165	-588.8573	1369.67932	1558.67456	-703.57532	1208.07922	1640.67981	-741.31165	1090.85181	1658.33337	-760.48468	972.01721	1676.17151	-734.703	822.2912	1646.47693	-789.41101	837.59235	1683.38818	-777.10211	753.37866	1681.97986	-555.81146	922.75024	1296.35669	-536.21796	929.40137	1515.11816	-708.81677	962.06866	1343.12964	-685.72137	958.8443	1509.78137	-685.91962	623.36444	1254.6936	-728.55176	463.44174	1284.63391	-871.54657	245.49973	1302.54419	-949.04791	93.54517	1356.62085	-993.69226	94.54678	1400.90076	-818.71289	38.07603	1360.29053	-518.09576	607.24524	1593.56885	-456.5993	497.85666	1563.77136	-386.86877	251.42744	1553.09326	-303.33493	84.00864	1510.71558	-320.85162	51.73272	1458.39172	-149.26517	103.62943	1531.24438	-596.92126	1662.91882	1393.92871	NaN	NaN	NaN	NaN	NaN	NaN	NaN	NaN	NaN	NaN	NaN	NaN	NaN	NaN	NaN
13	0.12	-482.71185	1621.302	1338.91516	-484.92334	1613.94263	1470.70483	-616.11414	1567.38831	1337.9436	-616.93036	1565.02869	1467.50281	-620.43854	1417.24683	1391.82568	-692.26508	1096.12109	1412.13623	-517.50635	1330.20605	1403.45911	-497.35797	1151.74353	1397.62952	-715.39545	1257.58313	1463.31323	-554.6131	1366.35852	1237.86707	-524.72046	1170.22766	1160.86133	-498.72977	1061.53699	1144.07886	-387.49243	962.30768	1145.37573	-279.06287	926.21161	1215.64282	-307.66919	878.27423	1172.30151	-221.9868	856.88745	1188.25415	-574.96185	1367.94287	1559.70105	-689.43549	1206.20544	1641.75732	-727.15161	1089.0105	1659.66211	-746.67395	970.25446	1677.68396	-721.40472	820.2309	1648.37366	-776.11536	835.97058	1685.22241	-764.17761	751.61871	1684.04004	-541.36237	920.94006	1296.9375	-521.13666	927.80475	1516.11182	-694.24878	959.8938	1344.56726	-670.77911	957.23718	1511.16577	-672.48248	622.09979	1255.17664	-716.61707	462.38199	1284.51123	-864.98914	247.9977	1301.8584	-946.56958	97.87718	1355.13086	-991.3266	100.4548	1399.13391	-818.28546	38.01577	1360.32446	-501.3335	606.71417	1593.83582	-440.53006	497.80157	1563.23535	-372.07352	250.26544	1551.44153	-289.57797	82.33569	1508.11914	-307.40277	49.72952	1455.89172	-135.44952	101.97794	1527.50513	-583.99011	1661.35999	1395.24146	NaN	NaN	NaN	NaN	NaN	NaN	NaN	NaN	NaN	NaN	NaN	NaN	NaN	NaN	NaN
14	0.13	-469.59506	1620.349	1340.14673	-471.66898	1612.86047	1471.99207	-602.86847	1566.11414	1339.29883	-603.5202	1563.60608	1468.83289	-606.82001	1415.82251	1392.9408	-677.55713	1094.44617	1412.78137	-503.17151	1329.06091	1404.63867	-482.76566	1150.49292	1398.64673	-701.0094	1255.77356	1464.33337	-540.78815	1365.18201	1238.97827	-511.35519	1169.06995	1161.87354	-485.25665	1060.51904	1145.22546	-372.5032	963.67706	1147.20667	-263.51544	930.90009	1218.06494	-291.08597	881.4137	1175.0238	-204.91591	862.77759	1191.1062	-560.80664	1366.44055	1560.82861	-674.8501	1204.40674	1642.98608	-712.38885	1087.13257	1661.1615	-732.17108	968.43781	1679.35754	-707.32635	818.52313	1650.66028	-762.08514	834.26459	1687.14478	-750.56879	749.77521	1686.35278	-526.36719	919.36359	1297.84131	-506.09677	926.83502	1517.32068	-679.28882	957.86072	1345.75366	-655.78839	956.07813	1512.22681	-658.46863	620.96649	1255.71484	-703.8244	461.4733	1284.46948	-857.59521	250.74648	1301.06201	-943.7287	102.97702	1353.42627	-988.37079	107.09025	1397.11975	-817.79852	37.95369	1360.41919	-483.76932	607.01654	1594.13818	-422.92181	498.73557	1562.66663	-357.88998	249.10434	1550.03955	-279.43979	79.49091	1505.11804	-298.75595	47.28511	1453.245	-125.05669	96.85928	1522.20361	-570.91284	1660.12939	1396.65784	NaN	NaN	NaN	NaN	NaN	NaN	NaN	NaN	NaN	NaN	NaN	NaN	NaN	NaN	NaN
15	0.14	-456.28931	1619.703	1341.48792	-458.2594	1612.06311	1473.2998	-589.4668	1565.1637	1340.73853	-590.01727	1562.51465	1470.22791	-592.59015	1414.66235	1394.36133	-662.43359	1093.05701	1413.39746	-488.86295	1328.16943	1405.79919	-467.86313	1149.56885	1399.81409	-686.4444	1254.23132	1465.43616	-526.77209	1364.27344	1240.25305	-497.96594	1168.09656	1163.06677	-472.26749	1059.5907	1146.45227	-358.19266	964.98834	1149.03833	-248.86545	934.99725	1220.27991	-275.47928	884.38934	1177.60938	-188.7059	868.19196	1193.85779	-546.56122	1365.32056	1562.08899	-659.83307	1202.66907	1644.39136	-697.04822	1085.35547	1662.74121	-716.98615	966.63202	1681.1449	-692.63184	816.33533	1652.61121	-747.34143	832.55566	1689.23804	-736.23077	747.96606	1688.52527	-510.82745	918.07251	1298.88232	-490.55032	926.4696	1518.77332	-664.14862	956.43115	1346.82874	-640.99542	955.29736	1512.92505	-643.79346	619.89893	1256.32788	-690.17078	460.63068	1284.30994	-849.35596	253.84276	1300.21729	-940.07593	108.55226	1351.5813	-984.6217	114.42194	1394.91333	-817.24866	37.85444	1360.48865	-465.38815	608.37299	1594.90234	-404.09265	500.70511	1562.38159	-344.4021	247.83159	1548.81482	-272.82236	75.7807	1501.91089	-293.64621	43.51501	1450.23767	-118.44269	89.48739	1516.37805	-557.71893	1659.18835	1398.17688	NaN	NaN	NaN	NaN	NaN	NaN	NaN	NaN	NaN	NaN	NaN	NaN	NaN	NaN	NaN
16	0.15	-442.94702	1619.35242	1342.93091	-444.88315	1611.58411	1474.59729	-575.93805	1564.5011	1342.21777	-576.39771	1561.69482	1471.71863	-578.51862	1413.729	1395.75476	-647.04474	1091.99524	1414.19055	-474.3038	1327.63513	1407.21826	-452.70947	1149.02087	1401.16687	-671.6701	1253.07764	1466.51355	-512.57501	1363.60107	1241.64075	-484.45663	1167.35559	1164.3269	-459.50967	1058.78699	1147.72437	-344.78699	965.97736	1150.73108	-235.01775	938.59442	1222.4646	-260.45914	887.21149	1180.76904	-173.55124	872.76062	1196.6084	-532.18256	1364.48523	1563.46729	-644.46802	1200.9917	1645.97583	-681.11102	1083.58667	1664.41272	-701.19379	964.88385	1683.05054	-677.18866	814.53839	1654.82983	-731.8161	830.95026	1691.41882	-721.05084	746.44336	1690.86987	-494.85242	917.01721	1300.08679	-474.85837	926.34949	1520.34534	-648.00946	954.84247	1347.58948	-625.19568	954.60742	1513.49573	-628.47687	619.02966	1256.90173	-675.52148	459.80399	1284.15808	-840.16827	257.24527	1299.54565	-935.73199	114.88097	1349.6803	-980.05347	122.78819	1392.94519	-816.52679	37.78896	1360.56921	-446.29916	610.19519	1595.21729	-384.68527	503.48117	1561.89575	-331.81155	246.34651	1547.82031	-269.32324	71.54001	1498.83716	-292.59799	39.72394	1447.94604	-114.82371	80.89836	1509.6626	-544.37286	1658.52148	1399.70947	NaN	NaN	NaN	NaN	NaN	NaN	NaN	NaN	NaN	NaN	NaN	NaN	NaN	NaN	NaN
